<svg xmlns="http://www.w3.org/2000/svg" viewBox="0 0 300 60">
	<defs>
		<filter id="filter0_d" x="12.0615" y="9.60596" width="7.05273" height="29.7896" filterUnits="userSpaceOnUse" color-interpolation-filters="sRGB">
			<feFlood flood-opacity="0" result="BackgroundImageFix"/>
			<feColorMatrix in="SourceAlpha" type="matrix" values="0 0 0 0 0 0 0 0 0 0 0 0 0 0 0 0 0 0 127 0" result="hardAlpha"/>
			<feOffset dy="0.5"/>
			<feGaussianBlur stdDeviation="0.5"/>
			<feComposite in2="hardAlpha" operator="out"/>
			<feColorMatrix type="matrix" values="0 0 0 0 0 0 0 0 0 0 0 0 0 0 0 0 0 0 0.12 0"/>
			<feBlend mode="normal" in2="BackgroundImageFix" result="effect1_dropShadow"/>
			<feBlend mode="normal" in="SourceGraphic" in2="effect1_dropShadow" result="shape"/>
		</filter>
		<filter id="filter1_d" x="21.5391" y="19.709" width="7.05273" height="19.6843" filterUnits="userSpaceOnUse" color-interpolation-filters="sRGB">
			<feFlood flood-opacity="0" result="BackgroundImageFix"/>
			<feColorMatrix in="SourceAlpha" type="matrix" values="0 0 0 0 0 0 0 0 0 0 0 0 0 0 0 0 0 0 127 0" result="hardAlpha"/>
			<feOffset dy="0.5"/>
			<feGaussianBlur stdDeviation="0.5"/>
			<feComposite in2="hardAlpha" operator="out"/>
			<feColorMatrix type="matrix" values="0 0 0 0 0 0 0 0 0 0 0 0 0 0 0 0 0 0 0.12 0"/>
			<feBlend mode="normal" in2="BackgroundImageFix" result="effect1_dropShadow"/>
			<feBlend mode="normal" in="SourceGraphic" in2="effect1_dropShadow" result="shape"/>
		</filter>
	</defs>
	<!-- Icon -->
	<g transform="translate(0, 2)">
		<path d="M 3.465 15.961 C 3.465 8.985 9.12 3.33 16.096 3.33 L 38.833 3.33 C 45.809 3.33 51.465 8.985 51.465 15.961 L 51.465 38.698 C 51.465 45.674 45.809 51.33 38.833 51.33 L 16.096 51.33 C 9.12 51.33 3.465 45.674 3.465 38.698 L 3.465 15.961 Z" fill="#465FFF"/>
		<g filter="url(#filter0_d)" transform="matrix(1, 0, 0, 1, 2.694712, 3.329799)">
			<path d="M13.0615 12.6323C13.0615 11.237 14.1926 10.106 15.5878 10.106C16.9831 10.106 18.1142 11.237 18.1142 12.6323V35.3691C18.1142 36.7644 16.9831 37.8954 15.5878 37.8954C14.1926 37.8954 13.0615 36.7644 13.0615 35.3691V12.6323Z" fill="white"/>
		</g>
		<g filter="url(#filter1_d)" transform="matrix(1, 0, 0, 0.647132, 2.680546, 8.48585)">
			<path d="M22.5391 22.7353C22.5391 21.3401 23.6701 20.209 25.0654 20.209C26.4606 20.209 27.5917 21.3401 27.5917 22.7353V35.3669C27.5917 36.7621 26.4606 37.8932 25.0654 37.8932C23.6701 37.8932 22.5391 36.7621 22.5391 35.3669V22.7353Z" fill="white" fill-opacity="0.9" shape-rendering="crispEdges"/>
		</g>
		<g filter="url(#filter0_d)" transform="matrix(1, 0, 0, 1, 21.904688, 3.329799)">
			<path d="M13.0615 12.6323C13.0615 11.237 14.1926 10.106 15.5878 10.106C16.9831 10.106 18.1142 11.237 18.1142 12.6323V35.3691C18.1142 36.7644 16.9831 37.8954 15.5878 37.8954C14.1926 37.8954 13.0615 36.7644 13.0615 35.3691V12.6323Z" fill="white"/>
		</g>
	</g>
	<!-- Text -->
	<text x="66" y="40" font-family="Inter, -apple-system, BlinkMacSystemFont, 'Segoe UI', Roboto, sans-serif" font-size="28" font-weight="700" fill="#0f172a">Hub Message</text>
</svg>
